<?xml version="1.0" encoding="utf-8"?>
<svg viewBox="0 0 500 500" xmlns="http://www.w3.org/2000/svg">
  <text style="fill: rgb(51, 51, 51); font-family: Arial, sans-serif; font-size: 26.4px; font-weight: 700; white-space: pre;" x="61.321" y="29.245">AJVX</text>
  <path d="M 46.182 31.655 C 48.943 31.655 51.229 29.397 50.718 26.684 C 50.397 24.982 49.913 23.314 49.268 21.705 C 48.005 18.551 46.153 15.684 43.819 13.27 C 41.485 10.856 38.714 8.941 35.664 7.634 C 34.159 6.989 32.599 6.498 31.01 6.167 C 28.306 5.604 26.045 7.893 26.045 10.655 L 26.045 26.655 C 26.045 29.416 28.283 31.655 31.045 31.655 L 46.182 31.655 Z" fill="#615DFF"/>
  <g style="mix-blend-mode:multiply" transform="matrix(1, 0, 0, 1, 24.27138328552246, 4.93778133392334)">
    <path d="M13.7013 26C10.9399 26 8.65395 23.7425 9.16502 21.0288C9.48544 19.3274 9.97031 17.6594 10.6147 16.0502C11.878 12.8958 13.7295 10.0295 16.0637 7.61522C18.3979 5.2009 21.169 3.28575 24.2187 1.97913C25.7244 1.33406 27.2834 0.843538 28.8733 0.512196C31.5767 -0.0511821 33.8382 2.23858 33.8382 5V21C33.8382 23.7614 31.5996 26 28.8382 26H13.7013Z" fill="#3DD9EB"/>
  </g>
</svg>